<?xml version="1.0" standalone="no"?>
<!DOCTYPE svg PUBLIC "-//W3C//DTD SVG 20010904//EN"
 "http://www.w3.org/TR/2001/REC-SVG-20010904/DTD/svg10.dtd">
<svg version="1.0" xmlns="http://www.w3.org/2000/svg"
 width="1200.000000pt" height="800.000000pt" viewBox="0 0 1200.000000 800.000000"
 preserveAspectRatio="xMidYMid meet">

<g transform="translate(0.000000,800.000000) scale(0.100000,-0.100000)"
fill="#000000" stroke="none">
<path d="M5755 4520 c-2519 -235 -4615 -430 -4659 -434 l-78 -8 6 -30 c3 -17
78 -134 166 -259 88 -126 160 -235 160 -242 0 -8 -201 -226 -447 -486 -247
-260 -453 -485 -460 -499 -29 -64 -4 -167 65 -269 74 -109 386 -428 1272
-1299 151 -149 302 -303 334 -342 32 -40 104 -116 160 -169 118 -114 126 -110
76 39 -62 188 -238 508 -385 698 -64 83 -187 271 -302 461 -213 351 -352 637
-361 744 l-4 51 67 62 67 63 32 -68 c51 -104 205 -305 684 -887 139 -170 293
-363 342 -430 84 -117 130 -169 130 -150 0 5 -8 38 -19 74 -47 164 -142 369
-269 583 -110 184 -364 697 -346 697 2 0 23 -12 47 -27 52 -33 312 -162 390
-193 54 -22 63 -32 151 -149 139 -185 246 -311 381 -446 251 -251 492 -412
694 -463 65 -17 72 -22 117 -78 344 -428 694 -703 1000 -785 117 -32 293 -32
394 0 199 62 367 197 499 401 l61 95 -32 7 c-18 3 -85 16 -148 28 -284 55
-595 188 -875 373 -95 63 -244 178 -245 188 0 10 39 16 335 48 329 37 708 69
910 78 199 8 196 7 146 70 l-40 50 61 7 c77 8 321 8 370 0 l37 -6 -40 -53
c-21 -28 -39 -55 -39 -58 0 -3 15 0 33 8 19 8 81 24 138 36 89 20 135 23 324
23 212 1 292 -6 500 -40 117 -19 398 -84 408 -94 12 -11 -127 -173 -215 -251
-286 -255 -588 -397 -948 -445 -58 -7 -141 -14 -185 -14 l-80 -1 64 -61 c35
-33 102 -85 147 -115 432 -281 942 -252 1454 84 166 109 301 223 490 413 l175
177 125 60 c497 237 933 591 1177 956 39 59 54 72 116 104 97 48 218 124 303
189 39 30 74 54 77 54 9 0 -77 -247 -139 -398 -73 -178 -126 -294 -233 -514
-49 -101 -110 -238 -135 -305 -41 -110 -96 -298 -96 -327 1 -17 33 28 107 149
37 61 161 245 276 410 279 400 561 824 599 899 17 34 32 63 33 64 2 2 24 -10
48 -27 68 -47 71 -91 20 -296 -65 -261 -246 -743 -380 -1010 -148 -294 -270
-675 -261 -813 l3 -45 66 89 c62 84 136 200 172 271 10 17 129 188 265 380
628 879 898 1287 942 1419 27 80 24 160 -7 202 -15 20 -565 431 -946 707 -10
7 -24 36 -32 64 l-13 50 37 53 c20 29 94 138 164 241 118 175 127 191 127 235
0 63 -27 112 -76 137 -26 14 -131 36 -303 65 l-264 45 -30 61 -30 61 102 241
c55 132 101 243 101 246 0 8 362 42 -4625 -424z m-716 -559 c185 -95 226 -423
74 -592 -183 -203 -446 19 -402 339 6 42 20 96 32 120 57 123 194 184 296 133z
m2080 0 c174 -89 213 -411 68 -568 -47 -51 -79 -70 -134 -79 -60 -9 -135 27
-183 88 -56 71 -75 134 -75 253 0 88 4 107 27 158 31 66 73 121 115 148 39 26
131 26 182 0z m1626 -2057 c-16 -13 -69 -52 -118 -87 -83 -59 -94 -64 -220
-94 -72 -17 -135 -29 -139 -26 -5 2 -8 31 -8 63 0 54 2 60 23 64 371 77 472
98 476 102 2 2 7 4 10 4 3 -1 -7 -12 -24 -26z m-5197 -56 l162 -31 0 -35 c0
-24 -11 -49 -36 -83 l-35 -49 -59 30 c-60 31 -184 125 -235 180 l-30 33 35 -7
c19 -4 108 -21 198 -38z"/>
</g>
</svg>
